<svg id="Layer_1" data-name="Layer 1" xmlns="http://www.w3.org/2000/svg" xmlns:xlink="http://www.w3.org/1999/xlink" viewBox="0 0 1000 1000"><defs><style>.cls-1{fill:#dce684;}.cls-2{fill:#00afa7;}.cls-3{fill:#e0eeca;}.cls-4{fill:#00aa98;}.cls-5{fill:#00b8ba;}.cls-6{fill:#00aa96;}.cls-7{fill:#f0f3db;}.cls-8{fill:#fff;}.cls-9{fill:#004748;}.cls-10{fill:url(#Degradado_sin_nombre_43);}.cls-11{fill:url(#Degradado_sin_nombre_43-2);}.cls-12{fill:url(#Degradado_sin_nombre_43-3);}.cls-13{fill:url(#Degradado_sin_nombre_43-4);}.cls-14{fill:url(#Degradado_sin_nombre_43-5);}.cls-15{fill:url(#Degradado_sin_nombre_56);}.cls-16{fill:url(#Degradado_sin_nombre_56-2);}.cls-17{fill:url(#Degradado_sin_nombre_28);}.cls-18{fill:url(#Degradado_sin_nombre_36);}.cls-19{fill:url(#Degradado_sin_nombre_56-3);}.cls-20{fill:url(#Degradado_sin_nombre_16);}.cls-21{fill:url(#Degradado_sin_nombre_20);}.cls-22{fill:url(#Degradado_sin_nombre_56-4);}.cls-23{fill:url(#Degradado_sin_nombre_20-2);}.cls-24{fill:url(#Degradado_sin_nombre_28-2);}.cls-25{fill:url(#Degradado_sin_nombre_56-5);}.cls-26{fill:url(#Degradado_sin_nombre_43-6);}.cls-27{fill:url(#Degradado_sin_nombre_43-7);}.cls-28{fill:url(#Degradado_sin_nombre_43-8);}.cls-29{fill:url(#Degradado_sin_nombre_43-9);}.cls-30{fill:url(#Degradado_sin_nombre_43-10);}.cls-31{fill:url(#Degradado_sin_nombre_56-6);}.cls-32{fill:url(#Degradado_sin_nombre_16-2);}.cls-33{fill:url(#Degradado_sin_nombre_56-7);}.cls-34{fill:url(#Degradado_sin_nombre_16-3);}.cls-35{fill:url(#Degradado_sin_nombre_20-3);}.cls-36{fill:url(#Degradado_sin_nombre_89);}.cls-37{fill:url(#Degradado_sin_nombre_89-2);}.cls-38{fill:url(#Degradado_sin_nombre_20-4);}.cls-39{fill:url(#Degradado_sin_nombre_56-8);}.cls-40{fill:url(#Degradado_sin_nombre_16-4);}.cls-41{fill:url(#Degradado_sin_nombre_56-9);}.cls-42{fill:url(#Degradado_sin_nombre_56-10);}</style><linearGradient id="Degradado_sin_nombre_43" x1="275.7" y1="258.15" x2="354.16" y2="258.15" gradientUnits="userSpaceOnUse"><stop offset="0" stop-color="#ffd89f"/><stop offset="1" stop-color="#f8b978"/></linearGradient><linearGradient id="Degradado_sin_nombre_43-2" x1="395.29" y1="389.82" x2="449.66" y2="389.82" xlink:href="#Degradado_sin_nombre_43"/><linearGradient id="Degradado_sin_nombre_43-3" x1="239.77" y1="362.55" x2="365.86" y2="362.55" xlink:href="#Degradado_sin_nombre_43"/><linearGradient id="Degradado_sin_nombre_43-4" x1="410.14" y1="723.75" x2="593.14" y2="723.75" xlink:href="#Degradado_sin_nombre_43"/><linearGradient id="Degradado_sin_nombre_43-5" x1="238.59" y1="742.63" x2="310.35" y2="742.63" xlink:href="#Degradado_sin_nombre_43"/><linearGradient id="Degradado_sin_nombre_56" x1="311.69" y1="291.92" x2="338.54" y2="291.92" gradientUnits="userSpaceOnUse"><stop offset="0" stop-color="#ffd89f"/><stop offset="1" stop-color="#f58658"/></linearGradient><linearGradient id="Degradado_sin_nombre_56-2" x1="434.87" y1="708.77" x2="597.57" y2="708.77" xlink:href="#Degradado_sin_nombre_56"/><linearGradient id="Degradado_sin_nombre_28" x1="342.48" y1="572.91" x2="459.16" y2="572.91" gradientUnits="userSpaceOnUse"><stop offset="0" stop-color="#ffd89f"/><stop offset="1" stop-color="#faf3d5"/></linearGradient><linearGradient id="Degradado_sin_nombre_36" x1="302.97" y1="592.02" x2="438.98" y2="592.02" gradientUnits="userSpaceOnUse"><stop offset="0" stop-color="#ffd56d"/><stop offset="1" stop-color="#faf3d5"/></linearGradient><linearGradient id="Degradado_sin_nombre_56-3" x1="397.51" y1="366.39" x2="420.91" y2="366.39" xlink:href="#Degradado_sin_nombre_56"/><linearGradient id="Degradado_sin_nombre_16" x1="307.02" y1="475.04" x2="418.37" y2="475.04" gradientUnits="userSpaceOnUse"><stop offset="0" stop-color="#f15b33"/><stop offset="1" stop-color="#ef436f"/></linearGradient><linearGradient id="Degradado_sin_nombre_20" x1="310.44" y1="392.09" x2="418.12" y2="392.09" gradientUnits="userSpaceOnUse"><stop offset="0" stop-color="#ba3b49"/><stop offset="1" stop-color="#ef436f"/></linearGradient><linearGradient id="Degradado_sin_nombre_56-4" x1="241.7" y1="364.98" x2="388" y2="364.98" xlink:href="#Degradado_sin_nombre_56"/><linearGradient id="Degradado_sin_nombre_20-2" x1="298.79" y1="343.91" x2="372.2" y2="343.91" xlink:href="#Degradado_sin_nombre_20"/><linearGradient id="Degradado_sin_nombre_28-2" x1="274.87" y1="597.26" x2="359.58" y2="597.26" xlink:href="#Degradado_sin_nombre_28"/><linearGradient id="Degradado_sin_nombre_56-5" x1="257.4" y1="744.71" x2="333.18" y2="744.71" xlink:href="#Degradado_sin_nombre_56"/><linearGradient id="Degradado_sin_nombre_43-6" x1="469.66" y1="726.54" x2="524.38" y2="726.54" xlink:href="#Degradado_sin_nombre_43"/><linearGradient id="Degradado_sin_nombre_43-7" x1="694.44" y1="775.37" x2="803.49" y2="775.37" xlink:href="#Degradado_sin_nombre_43"/><linearGradient id="Degradado_sin_nombre_43-8" x1="442.7" y1="363.74" x2="551.82" y2="363.74" xlink:href="#Degradado_sin_nombre_43"/><linearGradient id="Degradado_sin_nombre_43-9" x1="648.13" y1="412.53" x2="704.19" y2="412.53" xlink:href="#Degradado_sin_nombre_43"/><linearGradient id="Degradado_sin_nombre_43-10" x1="542.05" y1="233.54" x2="589.99" y2="233.54" xlink:href="#Degradado_sin_nombre_43"/><linearGradient id="Degradado_sin_nombre_56-6" x1="709.46" y1="761.08" x2="810.72" y2="761.08" xlink:href="#Degradado_sin_nombre_56"/><linearGradient id="Degradado_sin_nombre_16-2" x1="553.48" y1="266.35" x2="730.61" y2="266.35" xlink:href="#Degradado_sin_nombre_16"/><linearGradient id="Degradado_sin_nombre_56-7" x1="654.77" y1="416.42" x2="729.83" y2="416.42" xlink:href="#Degradado_sin_nombre_56"/><linearGradient id="Degradado_sin_nombre_16-3" x1="617.03" y1="596.36" x2="731.55" y2="596.36" xlink:href="#Degradado_sin_nombre_16"/><linearGradient id="Degradado_sin_nombre_20-3" x1="568.54" y1="604.3" x2="709.46" y2="604.3" xlink:href="#Degradado_sin_nombre_20"/><linearGradient id="Degradado_sin_nombre_89" x1="595.28" y1="361.5" x2="590.67" y2="270.04" gradientUnits="userSpaceOnUse"><stop offset="0" stop-color="#00aa8c"/><stop offset="1" stop-color="#04b9a9"/></linearGradient><linearGradient id="Degradado_sin_nombre_89-2" x1="555.33" y1="425.88" x2="585.3" y2="420.5" xlink:href="#Degradado_sin_nombre_89"/><linearGradient id="Degradado_sin_nombre_20-4" x1="485.43" y1="607.36" x2="595.4" y2="607.36" xlink:href="#Degradado_sin_nombre_20"/><linearGradient id="Degradado_sin_nombre_56-8" x1="570.81" y1="272.35" x2="594.06" y2="272.35" xlink:href="#Degradado_sin_nombre_56"/><linearGradient id="Degradado_sin_nombre_16-4" x1="457.83" y1="586.71" x2="576.68" y2="586.71" xlink:href="#Degradado_sin_nombre_16"/><linearGradient id="Degradado_sin_nombre_56-9" x1="441.44" y1="378.67" x2="566.1" y2="378.67" xlink:href="#Degradado_sin_nombre_56"/><linearGradient id="Degradado_sin_nombre_56-10" x1="494.08" y1="722.49" x2="537.43" y2="722.49" xlink:href="#Degradado_sin_nombre_56"/></defs><title>Runners-no-blob</title><path class="cls-1" d="M99.82,756.46c-1.58-.65-3.29-1.86-3.19-3.56.09-1.9,2.31-2.89,4.21-3.26a31.76,31.76,0,0,1,28.63,9.26l.12.61a44.53,44.53,0,0,1,25.69-14.41c2.19-.38,4.88-.4,6.13,1.41a4.15,4.15,0,0,1-.12,4.45,10.39,10.39,0,0,1-3.49,3.12,44.52,44.52,0,0,1-28.52,6.42l.18-.84v0C119.76,757.25,109,760.33,99.82,756.46Z"/><path class="cls-1" d="M97.31,786.3a5.21,5.21,0,0,1-3-1.8,3.88,3.88,0,0,1,.68-4.59,9.08,9.08,0,0,1,4.39-2.29,30.48,30.48,0,0,1,29.37,8l.45,1a48.21,48.21,0,0,1,24.89-20.73c2.2-.81,5-1.27,6.51.53a3.94,3.94,0,0,1,.33,4,10.09,10.09,0,0,1-2.56,3.26A51,51,0,0,1,129,787l0-.14-22.37.22A34.37,34.37,0,0,1,97.31,786.3Z"/><path class="cls-1" d="M132.23,839.19a72.21,72.21,0,0,1-31.17,7.26c-2,0-4.49-.32-5.33-2.17-.92-2,.81-4.22,2.62-5.5,4.87-3.46,11.17-4.48,17.14-4s11.79,2.23,17.53,4Z"/><path class="cls-1" d="M106.5,703c.25-2.3,2.93-3.46,5.24-3.71a22.23,22.23,0,0,1,14.5,4.06,38.09,38.09,0,0,1,10.34,11.14v.06c4.94-4.23,10.18-8.42,16.52-9.81a9.24,9.24,0,0,1,5.24.11,4.41,4.41,0,0,1,3,4c-.06,1.94-1.75,3.43-3.45,4.4-6.07,3.44-13.46,3.29-20.46,3l-1.22-.66a87.84,87.84,0,0,1-25.32-7.51C108.69,707.05,106.24,705.36,106.5,703Z"/><path class="cls-1" d="M113.78,682.9a4.56,4.56,0,0,1,2.39-3.46,8.7,8.7,0,0,1,4.21-1,21.49,21.49,0,0,1,12.36,4,51.79,51.79,0,0,1,9.58,9l-1.18,0c-6.92-.52-13.89-1.06-20.64-2.68A12.45,12.45,0,0,1,116,687,4.84,4.84,0,0,1,113.78,682.9Z"/><path class="cls-1" d="M101.12,815.33c-2.25.15-4.65.27-6.67-.74S91,811,92,809c.75-1.46,2.45-2.11,4-2.55a37.32,37.32,0,0,1,32.77,7.08Z"/><path class="cls-1" d="M141.82,691.67l.76.15a37.2,37.2,0,0,1,22.92-10.53,9.52,9.52,0,0,1,4.25.36,3.93,3.93,0,0,1,2.66,3.07c.22,2.27-2.08,3.93-4.16,4.87A39.37,39.37,0,0,1,141.82,691.67Z"/><path class="cls-1" d="M153.86,660.57a46.7,46.7,0,0,1,19.57-33.16,11.29,11.29,0,0,1,3.78-1.89,4.52,4.52,0,0,1,4,.85c1.9,1.75,1.23,4.86.15,7.19-5.36,11.6-16.57,19.27-27.28,26.35Z"/><path class="cls-1" d="M132.08,740.11a2.23,2.23,0,0,0-.19-.24l.22,0-.08-.07c5.49-8.54,14.51-15.38,24.71-16,2.34-.15,5.2.34,6.12,2.52,1,2.36-1.05,4.87-3.09,6.43a37.45,37.45,0,0,1-27.29,7.39l-.18-.15Z"/><path class="cls-1" d="M149.1,674.81l-.81-.51a65.72,65.72,0,0,1,12-8.39,29.81,29.81,0,0,1,14.11-3.55,9.28,9.28,0,0,1,4.32.94,4.32,4.32,0,0,1,2.39,3.51c.08,2.48-2.47,4.16-4.78,5.14A47.23,47.23,0,0,1,149.1,674.81Z"/><path class="cls-1" d="M102.44,727.17c.67-1.33,2.25-1.92,3.71-2.18,5.2-1,10.67.74,15,3.7s7.66,7,10.69,11.18c-8.33-1.49-16.71-3-24.59-6.08a10.58,10.58,0,0,1-4-2.35A3.91,3.91,0,0,1,102.44,727.17Z"/><path class="cls-1" d="M129,813.71c-.07,0-.13-.11-.22-.16a1.43,1.43,0,0,0,.29,0l.09-.19a51.35,51.35,0,0,1,20.19-27.73c1.75-1.2,4-2.32,5.94-1.49,2.19.92,2.8,3.78,2.32,6.08-.88,4.3-4.27,7.61-7.64,10.42A111.78,111.78,0,0,1,129.63,814v0l.15.3c-.09-.09-.19-.16-.29-.25-.27.16-.54.3-.82.44Z"/><path class="cls-1" d="M133,838.58c.21-.11.41-.21.62-.34-.1.5-.21,1-.29,1.53Z"/><path class="cls-1" d="M156.78,804.45a10.7,10.7,0,0,1,4.35-1.27,4.7,4.7,0,0,1,4,1.78,5.53,5.53,0,0,1,.54,4.44c-.89,3.89-3.62,7.07-6.42,9.92a103.45,103.45,0,0,1-25.62,18.92,57.58,57.58,0,0,1,7.19-19A38.56,38.56,0,0,1,156.78,804.45Z"/><path class="cls-1" d="M173.58,836.2a4.67,4.67,0,0,1,.54,3.64,11.09,11.09,0,0,1-1.59,3.42,56,56,0,0,1-15,15.34,149.28,149.28,0,0,1-18.06,10.68l.74.48a79.9,79.9,0,0,1-29.26,3.66,10.93,10.93,0,0,1-4.74-1.07,4,4,0,0,1-2.18-4c.33-1.68,2-2.72,3.58-3.41a31.22,31.22,0,0,1,31.35,4v-.15a47.05,47.05,0,0,1,18.7-30.06c3.19-2.3,6.83-4.25,10.77-4.45C170.34,834.17,172.5,834.62,173.58,836.2Z"/><path class="cls-1" d="M147.06,882.38a281.55,281.55,0,0,1,12.88-220.65c2.11-4.25-4.85-6.79-6.94-2.58a288.72,288.72,0,0,0-12.63,226.36C142,890,148.66,886.82,147.06,882.38Z"/><path class="cls-2" d="M146.11,887.5l1.69-.63c-.1.53-.22,1.06-.36,1.6Z"/><path class="cls-2" d="M147.8,886.87c2.27-11.24-1.23-23.8-5.75-35.67-4.75-12.44-10.68-24.88-12.59-37.46-.43-2.84-.52-6,1.6-7.75,2.61-2.14,7.54-1,10.66,1.61s4.91,6.12,6.56,9.51a88.16,88.16,0,0,1,7.41-47.9l12.86,15.49a79.18,79.18,0,0,1,12.31-37.63c2.16-3.34,5.63-6.85,10.32-5.66,5.18,1.33,7.41,7.16,8.49,11.83,9.34-17.89,26.39-31.56,47.47-38.09,5.58-1.72,13-2.55,17.78,1.86s3.67,11.07,1.84,16.19a205.18,205.18,0,0,1-21.19,43c4.44-1,9.12-2,14-1s9.88,5,10.12,9.33c.2,3.9-3.3,6.48-6.57,8.53q-18.7,11.82-38.75,22c5.88.73,13.51,2.83,14.87,8.11,1.15,4.45-3.33,7.41-7.36,9.32q-16.65,7.92-34.07,14.75c4.08-.74,8.92,2.79,10.18,6.69s-.4,7.7-3.2,10.2-6.61,3.93-10.34,5.33Z"/><path class="cls-3" d="M237.24,734.11a513.71,513.71,0,0,0-43.17,60.45,140.65,140.65,0,0,1-.85-23.76c.12-2.35-3.55-2.06-3.67.28A140.27,140.27,0,0,0,191,799.52h0Q178.69,820.19,168.29,842q-2.52-18-5-36.11c-.33-2.33-4-2.07-3.67.28l5.64,40.31a1.74,1.74,0,0,0,.51,1c-4,8.58-7.8,17.23-11.3,26-.87,2.19,2.43,3.81,3.31,1.61,3.68-9.27,7.73-18.37,12-27.38a1.6,1.6,0,0,0,.4-.11L197,834c2.08-1,.87-4.53-1.25-3.46l-23.6,11.92c7-14.6,14.65-28.88,23-42.74a1.89,1.89,0,0,0,.81,0,196,196,0,0,0,34.89-13.3c2.09-1,.88-4.51-1.24-3.46a196.3,196.3,0,0,1-31.67,12.33A512,512,0,0,1,240,736.51C241.55,734.69,238.76,732.29,237.24,734.11Z"/><path class="cls-4" d="M138.82,810.12c2.4,5.22.51,10.58-1.38,15.57q-9.84,25.68-21.79,50.49l.93.72-47.65-.09c-3.37,0-6.84,0-10-1.32-5.09-2.12-9-8.56-1.83-14.27a17,17,0,0,1,4.36-2.45l21-8.41c2.36-1,5.15-2.47,4.51-5.3a4.31,4.31,0,0,0-2.75-3,55.31,55.31,0,0,0-32.57-2c-3.07.76-6.19,1.78-9.32,1.36-4.23-.6-8.48-4.91-4.66-9.59a9.57,9.57,0,0,1,3-2.38,103.33,103.33,0,0,1,23.36-8.72c4.2-1,9.68-3.29,8.39-7.86a5.66,5.66,0,0,0-4.25-3.9,75.07,75.07,0,0,0-29.15-.68c-2.39.43-4.85,1-7.24.47-3.29-.68-6.44-4-3.79-7.81a7.66,7.66,0,0,1,4.2-2.85L55,791.51c2.68-.79,5.87-2.07,5.67-5.3a5.07,5.07,0,0,0-4.06-4.53,87.79,87.79,0,0,0-31.95-.86c-3.36.52-6.91,1.23-10-.76a4.75,4.75,0,0,1-2.26-4.58c.41-2.67,3-3.63,5.25-4.36L42,763.44a1.69,1.69,0,0,0,.08-3.19A65.46,65.46,0,0,0,12.17,757c-2.51.31-5.1.76-7.55.13-3.43-.9-6.56-4.69-3.14-8.46a8.07,8.07,0,0,1,3.35-2.14,136.26,136.26,0,0,1,22.88-6L11.45,724.84c-4-3.83-8.3-8.6-6.54-14.26a9.78,9.78,0,0,1,8.78-6.5c6.73-.52,12.18,4.08,15.77,9.38,2,2.95,3.66,6.27,7.1,7.8a5.57,5.57,0,0,0,5.26-.24c2.66-1.76,2.35-5.07,2.42-8,.06-2.54,1-5.61,3.53-6a4.63,4.63,0,0,1,3.69,1.26c3.8,3.2,4.06,8.94,3.37,13.85-.84,6-2.64,12.37,1.28,17.79,2.14,3,6.18,4.12,9.25,2.15s3.09-6,3.8-9.36,3.58-7.16,7-5.37a5.23,5.23,0,0,1,2.21,2.54c3.33,7.53,1.12,15.93-.24,23.91-.84,5-1.21,10.49.17,15.24a3.77,3.77,0,0,0,6.91.73l8.51-15.25c.94-1.71,2.09-3.57,4.4-3.41a3.89,3.89,0,0,1,3,1.91c1.55,2.51.89,5.34.23,8q-3.74,15.09-7.49,30.15c-.87,3.48-1.57,7.65,1.49,10a6.53,6.53,0,0,0,8.13-.48c4.93-4,5-10.4,7.58-15.61,1.56-3.14,5.47-6.13,8.34-3.15a5,5,0,0,1,1.09,4.93,169.76,169.76,0,0,1-11.4,28.56c-1.84,3.63-3.88,7.47-2.63,11.61a5.51,5.51,0,0,0,6,4.12c2.75-.46,4.22-3.22,5.37-5.68q2.69-5.76,5.38-11.56c1.83-3.93,4.33-8.41,9-8.34A7.63,7.63,0,0,1,138.82,810.12Z"/><path class="cls-5" d="M112.81,873.56a293.44,293.44,0,0,0-99.61-168c-1.8-1.5-4.42,1.08-2.61,2.59a290.25,290.25,0,0,1,98.67,166.4C109.72,876.85,113.27,875.87,112.81,873.56Z"/><path class="cls-6" d="M821.91,888l1.24-1.19c0,.55.05,1.1,0,1.66Z"/><path class="cls-4" d="M823.15,886.82c-.56-11.52-6.06-22.34-12.25-32.13-6.49-10.27-13.94-20.11-18.16-31.49-1-2.57-1.7-5.58-.35-8,1.66-2.94,5.89-3.5,9-2.12s5.27,4.16,7.33,6.83a104,104,0,0,1-4.2-48.35l13.7,10.4a98,98,0,0,1,2-40.22c1-3.93,3.1-8.49,7.15-9,4.47-.51,7.52,4.3,9.39,8.4A92.32,92.32,0,0,1,867,688.48c4.15-3.57,10-6.9,14.78-4.33s5.33,9.32,4.94,14.84a259.81,259.81,0,0,1-8,48.45c3.38-2.5,6.95-5.09,11.1-5.72s9.06,1.39,10.17,5.45c1,3.66-1.29,7.33-3.5,10.42Q883.89,775.31,869.82,792c4.92-1.33,11.54-1.94,13.76,2.64,1.88,3.86-1.12,8.23-4,11.45q-11.77,13.29-24.43,25.81c3.14-2.11,7.81-.4,9.66,2.89s1.32,7.51-.42,10.86-4.51,6-7.24,8.65Q840.17,870.53,823.15,886.82Z"/><path class="cls-5" d="M871.17,689.46a639.7,639.7,0,0,0-46.73,191.86c-.25,2.89,4.22,3.77,4.46.85a635.68,635.68,0,0,1,46.37-190.73C876.39,688.74,872.3,686.75,871.17,689.46Z"/><path class="cls-1" d="M926,743.52v-.25a1.07,1.07,0,0,0,.16.14c6.39-4.51,14.3-7.5,21.94-6,1.93.39,4.13,1.44,4.32,3.4a3.54,3.54,0,0,1-2.07,3.29,9.25,9.25,0,0,1-4,.77,110.68,110.68,0,0,1-19.81-1.65l-.31.18h0l-.21.11-.38.22Z"/><path class="cls-1" d="M936.1,770.29c1.49.64,3.17,1.82,3,3.43a2.72,2.72,0,0,1-1.78,2,7.4,7.4,0,0,1-2.81.36A67.43,67.43,0,0,1,911.55,772l0-1.43A30.66,30.66,0,0,1,936.1,770.29Z"/><path class="cls-1" d="M897.48,740c.84-1.56,3.06-1.62,4.78-1.15,4.23,1.19,7.69,4.36,10.11,8a52.88,52.88,0,0,1,5.2,11.36,34,34,0,0,1,23.94-3.8c1.48.32,3.21,1,3.42,2.52a3.07,3.07,0,0,1-1.59,2.78c-1.84,1.2-4.15,1.32-6.35,1.31a79.59,79.59,0,0,1-19.3-2.46l.11.29-.78-.28-.21.09.18-.1-.85-.31c-5.92-4.09-11.87-8.22-16.91-13.35C897.91,743.59,896.59,741.64,897.48,740Z"/><path class="cls-1" d="M911.2,801.48c5.56-.05,11.27,1.65,15.38,5.4,1.07,1,2.09,2.54,1.35,3.8-.61,1-2,1.18-3.23,1.17a90,90,0,0,1-29.49-5.15l0,0,.17,1a62.56,62.56,0,0,1-24.18-12.79,10.54,10.54,0,0,1-2.92-3.47,4.18,4.18,0,0,1,.34-4.33,4.1,4.1,0,0,1,3.5-1.26,10.5,10.5,0,0,1,3.65,1.22A43.45,43.45,0,0,1,895,806.33l.12-.81A39.94,39.94,0,0,1,911.2,801.48Z"/><path class="cls-1" d="M913.41,853.7c-1.2,1.87-3.88,1.89-6.08,1.65-11.15-1.17-22.4-3.3-32.31-8.52l-.77.44c-10-2.95-17.52-11-24.39-18.89a15.49,15.49,0,0,1-3.65-5.63c-.64-2.17-.13-4.84,1.79-6,2.23-1.41,5.17-.29,7.42,1.1C865.54,824,872.17,835,875,846.48l1.42-1.19c10.62-4,23-4,33.05,1.22a9.68,9.68,0,0,1,3.61,2.83A4,4,0,0,1,913.41,853.7Z"/><path class="cls-1" d="M931.67,788.09a3,3,0,0,1-1.11,5.12,8.5,8.5,0,0,1-3.1.48c-8.09.14-16-2.1-23.79-4.32.05.1.1.2.14.3l-1.25-.43A29.21,29.21,0,0,1,881,774.82a6.58,6.58,0,0,1-1-2.56,2.62,2.62,0,0,1,1-2.43c1.06-.73,2.5-.29,3.69.24a38,38,0,0,1,18.92,19.08l-.31-.9A28.46,28.46,0,0,1,929,786.41,7.9,7.9,0,0,1,931.67,788.09Z"/><path class="cls-1" d="M933.76,733.06a52.54,52.54,0,0,1,7-10.48A20.82,20.82,0,0,1,951.27,716a6.23,6.23,0,0,1,3.12,0,2.8,2.8,0,0,1,2,2.16c.19,1.45-1.07,2.63-2.23,3.52a94.61,94.61,0,0,1-20.06,11.78Z"/><path class="cls-1" d="M899,875.9a5,5,0,0,1-3.68,2.77,12.51,12.51,0,0,1-4.76-.15c-11.1-2-21.35-7.08-31.38-12.23l-.18.29c-7.35-3.37-13-9.46-18.51-15.41-3.35-3.63-6.8-7.46-8.12-12.22a7.48,7.48,0,0,1-.27-3.54,3.8,3.8,0,0,1,2.06-2.77c1.48-.64,3.18,0,4.6.72a35.9,35.9,0,0,1,14.1,13.85,54.67,54.67,0,0,1,6.34,18l1-.94a56.27,56.27,0,0,1,18.17-1.72,34.07,34.07,0,0,1,17.06,6,10.92,10.92,0,0,1,3.07,3.1A4.91,4.91,0,0,1,899,875.9Z"/><path class="cls-1" d="M888.28,759a2.84,2.84,0,0,1,.63-2.62c1-1,2.63-.79,4-.43a27,27,0,0,1,17.76,15.85l-1-.09a71.69,71.69,0,0,1-10.9-3.5,23.55,23.55,0,0,1-9.13-6.75A6.37,6.37,0,0,1,888.28,759Z"/><path class="cls-1" d="M911.17,722.54c.83-.92,2.35-.39,3.4.27A24.79,24.79,0,0,1,926,743.27a52.88,52.88,0,0,1-14.59-17.59C910.85,724.68,910.41,723.36,911.17,722.54Z"/><path class="cls-1" d="M857.79,800.37a5.48,5.48,0,0,1,4.09-.44,30.44,30.44,0,0,1,16.25,9,42.42,42.42,0,0,1,9.45,16,36.18,36.18,0,0,1,34.88,2c1.38.89,2.83,2.14,2.77,3.78a3.47,3.47,0,0,1-2.61,2.91,9.59,9.59,0,0,1-4.13,0c-10.59-1.68-20.8-5.12-31-8.53l-.14,0-.13,0a.56.56,0,0,1,.16-.07l-1.87-.12a157.42,157.42,0,0,1-24.76-15.32,11.71,11.71,0,0,1-3.92-4C856,803.8,856.23,801.45,857.79,800.37Z"/><path class="cls-1" d="M936.84,731.86c1.47-1.63-1-4-2.48-2.34-40.3,44.72-45.26,112.06-92.1,151.81-1.67,1.42.83,3.74,2.48,2.33C891.65,843.85,896.55,776.57,936.84,731.86Z"/><path class="cls-2" d="M783.21,884.47l-1.49-.55c.1.47.2.93.33,1.4Z"/><path class="cls-2" d="M781.72,883.92c-2-9.8,1.08-20.78,5-31.14,4.15-10.85,9.33-21.71,11-32.69.37-2.49.45-5.25-1.4-6.77-2.28-1.86-6.58-.83-9.31,1.41s-4.28,5.34-5.72,8.3a77,77,0,0,0-6.47-41.81l-11.22,13.52a69.13,69.13,0,0,0-10.76-32.85c-1.87-2.91-4.91-6-9-4.94-4.52,1.16-6.46,6.25-7.41,10.33-8.16-15.62-23-27.56-41.44-33.25-4.87-1.51-11.32-2.23-15.52,1.62s-3.2,9.67-1.61,14.13a180.26,180.26,0,0,0,18.5,37.58c-3.87-.89-8-1.78-12.18-.84s-8.63,4.37-8.83,8.15c-.18,3.4,2.88,5.65,5.73,7.45q16.32,10.3,33.83,19.21c-5.14.63-11.8,2.46-13,7.07-1,3.89,2.91,6.47,6.43,8.14q14.52,6.91,29.74,12.88c-3.56-.65-7.78,2.43-8.89,5.83a8.46,8.46,0,0,0,2.79,8.91c2.45,2.19,5.77,3.43,9,4.65Z"/><path class="cls-3" d="M778,872.24c-3.28-6.82-6.75-13.54-10.33-20.2a1.42,1.42,0,0,0,.3-.75q2.15-22.93,4.3-45.87c.19-2-3-2.67-3.15-.62q-2,21.32-4,42.63Q756.61,831.88,747,817a1.22,1.22,0,0,0,.09-.27q1.77-18.16,3.53-36.34c.2-2-3-2.67-3.15-.62l-3.21,33q-8.35-12.75-17.44-25a1.87,1.87,0,0,0,0-.54q-1.25-12.35-2.48-24.68c-.21-2.05-3.41-1.82-3.2.24q1,10.09,2,20.18a508.45,508.45,0,0,0-34.32-40.64c-1.42-1.51-3.5.94-2.1,2.43a501.33,501.33,0,0,1,34.93,41.47l-18.11-4.37c-2-.49-2.62,2.67-.62,3.15l21.22,5.12a1.14,1.14,0,0,0,.41,0q8.58,11.6,16.52,23.63l-21.53,3.08c-2,.29-1.81,3.49.24,3.2l23.22-3.32c6.95,10.72,13.54,21.66,19.68,32.88l-19.32,1.69c-2.05.18-1.81,3.38.25,3.2l20.77-1.82c3.66,6.79,7.21,13.64,10.56,20.6C775.91,875.16,778.94,874.1,778,872.24Z"/><path class="cls-7" d="M963.79,862.52c0,20.24-215.59,59.78-481.55,59.78S.69,882.76.69,862.52Z"/><path class="cls-8" d="M272.82,872.56c-1.4,3.2-2.94,6.33-4.59,9.41l-.11.68a325.21,325.21,0,0,1-75.84-23.22,60,60,0,0,1-10-5.36,33.21,33.21,0,0,1-13.82-26.68C200.6,847.6,236.91,860.17,272.82,872.56Z"/><path class="cls-8" d="M627.4,767.25a11.21,11.21,0,0,1-.77,4.85,232.7,232.7,0,0,0-10.15,50.5c-.54,6.47-.88,13.11-3.28,19.13-3.84,9.54-12.57,16.44-22,20.52a32.59,32.59,0,0,1-8.86,2.62,9.47,9.47,0,0,1-5.28-.54c-3-1.4-4.44-5.05-4.27-8.38,0-.4.06-.83.11-1.23l2.51,0a35.49,35.49,0,0,0,26.82-18.52c3.16-6.1,4.45-13,5.73-19.75q5.13-27.71,10.26-55.38l.31-1,.23.09C622.49,761.44,626.83,763.35,627.4,767.25Z"/><path class="cls-9" d="M597.36,760c-.15-1.65-.32-3.34-.49-5l.6-1.77,21.06,6.93-.31,1q-5.13,27.66-10.26,55.38c-1.28,6.75-2.57,13.65-5.73,19.75a35.49,35.49,0,0,1-26.82,18.52l-2.51,0a37.1,37.1,0,0,1,2.6-8.29,88.7,88.7,0,0,0,3-53.47l.45-.74a6.6,6.6,0,0,0,1.06.09c2.42-.06,4.64-1.8,6.47-3.48a43,43,0,0,0,6.64-7.52,22.35,22.35,0,0,0,2.42-4.42C597.76,771.59,597.78,765.77,597.36,760Z"/><path class="cls-9" d="M257.4,841.16a41.15,41.15,0,0,0,19.67-1.31c.25-.06.48-.15.74-.23a48.21,48.21,0,0,1-1,21.49,77.68,77.68,0,0,1-4,11.45c-35.91-12.39-72.22-25-104.4-45.17a29.22,29.22,0,0,1,.2-3.5,7.52,7.52,0,0,1,1.63-4.36c2-2.06,5.38-1.43,8.15-.77a119.41,119.41,0,0,0,60.13-1.23c0,.31,0,.6.06.91A32,32,0,0,0,242.47,831a17.3,17.3,0,0,0,13.65,9.95Z"/><path class="cls-10" d="M354.16,280.58l-.66.42a48.16,48.16,0,0,0-15,7,78.85,78.85,0,0,0-2.93-11.43q-11.37,8.69-22.8,17.3l-1.12.86a29.57,29.57,0,0,1-8.37,4.78c-3.51,1.11-7.7.86-10.46-1.56a15.57,15.57,0,0,1-3.62-5.65c-9.44-21.69-13.06-45.51-13.54-69.17l.25-.31a7.41,7.41,0,0,0,1,.82,9.59,9.59,0,0,0,6.33,1c6.67-.82,12.62-4.41,18.92-6.69a22.21,22.21,0,0,1,9.32-1.63,10.79,10.79,0,0,1,8.18,4.28c1.88,2.73,2,6.32,1.43,9.6s-1.77,6.44-2.23,9.72a7.15,7.15,0,0,0,.17,3.62,3.13,3.13,0,0,0,2.74,2.05c1.57,0,2.65-1.54,3.45-2.91,1.42-2.48,2.88-5,4.33-7.41,1.08-1.88,2.65-4,4.79-3.76a3.83,3.83,0,0,1,2.31,1.34,7.91,7.91,0,0,1,1.57,6.33,60.73,60.73,0,0,1-1.57,6.53,27.13,27.13,0,0,0-.63,7.41c.17,3.39,1.45,7.23,4.65,8.35a5.45,5.45,0,0,0,6.35-2.91l.89.2q2,7.79,4,15.56A25.72,25.72,0,0,0,354.16,280.58Z"/><path class="cls-11" d="M449.64,380.64c.28,3.94-2.08,7.47-4.33,10.69Q424,421.51,402.64,451.67l-.94.42a44.34,44.34,0,0,1-1.82-4.3c-3.25-9-3.51-18.78-3.37-28.41h1.71c.63-7.47,1.74-15.25,6.22-21.24,1.71-2.31,4-4.61,4.58-7.32v0a23,23,0,0,1,4.48-4.73c4-3.45,8.32-8,7.24-13.14-.54-2.65-2.45-4.79-4.28-6.78l-8.66-9.35c-4.08-4.45-8.3-9.07-10.09-14.79h-.09a71.33,71.33,0,0,0-2.33-14.45,286.83,286.83,0,0,1,49.19,43.72C446.9,374,449.38,377,449.64,380.64Z"/><path class="cls-12" d="M305.14,407.23a23,23,0,0,0,9.52-1.79c3.13-1.43,5.78-3.76,8.69-5.62a34.07,34.07,0,0,1,20.24-5.24,66.63,66.63,0,0,1-14.34-41.13l-.77,0a18.42,18.42,0,0,1-18.07-12.34c-1.82-5.64-.71-11.94,1.94-17.21s6.75-9.75,11.06-13.83c5.9-5.61,12.54-10.77,19.92-14.13l.29.6c6.95,13.76,1.19,31.32,7.95,45.17,3.13,6.47,8.77,11.51,11.65,18.13,3,6.81,2.77,14.56,2.48,22q-.6,14.63-1.17,29.3c-.14,3-.28,6.07-1.59,8.75-2.34,4.79-7.87,7.15-13.11,8.21-19.87,4-40-5.08-60.22-5.42-8.15-.14-16.28,1.14-24.43,1.05s-16.67-1.65-23-6.75l-.45.14-.35-1c-.94-2.88-1.85-5.9-1.51-8.93s2.34-6.09,5.31-6.72,6.44,1,8.63-1c1.77-1.6,1.34-4.39,1.17-6.76s.65-5.44,3-5.64c1.45-.11,2.71,1,3.76,2a68.43,68.43,0,0,0,38.19,17.75A45.3,45.3,0,0,0,305.14,407.23Z"/><path class="cls-13" d="M592.51,780.91l.63.4a43,43,0,0,1-6.64,7.52c-1.83,1.68-4,3.42-6.47,3.48-7.47-6.33-13.85-13.8-20.64-20.81-31.83-32.69-73-54.61-114.43-73.59-6.67-3-13.42-6.07-19.29-10.43a53.9,53.9,0,0,1-15.53-18.35,153.91,153.91,0,0,0,24.73-13.94c14,20.69,37.74,32.29,60.74,42.1s47.37,19.46,64.18,38.13a158.44,158.44,0,0,1,12,15.79Q582.14,766,592.51,780.91Z"/><path class="cls-14" d="M239.36,817.33c10.06-15.22,15.48-33.12,20.72-50.67,5.47-18.3,11-36.83,11.94-55.89.57-11.29-.45-22.6-.11-33.89s2.16-22.72,7.89-32.35a73.75,73.75,0,0,1,30.53,3.11h0v.05c-4.64,7.33-9.06,14.91-11.74,23.15-7.12,21.8-1.42,45.66-4.07,68.46-2,17.3-8.75,33.63-15.45,49.7q-10.86,26.12-21.69,52.16l-1.28-.26A17.3,17.3,0,0,1,242.47,831a32,32,0,0,1-3.88-12.51Z"/><path class="cls-15" d="M335.61,276.53A78.85,78.85,0,0,1,338.54,288q-2.66,1.83-5.13,3.88a134,134,0,0,0-13.51,13.45c-.82.65-1.62,1.34-2.45,2a63.53,63.53,0,0,0-3.76-12.2l-2-.42,1.12-.86Q324.23,285.19,335.61,276.53Z"/><path class="cls-16" d="M597.36,760c.42,5.81.4,11.63-1.8,16.93a22.35,22.35,0,0,1-2.42,4.42l-.63-.4q-10.38-14.83-20.72-29.7a158.44,158.44,0,0,0-12-15.79c-16.81-18.67-41.1-28.27-64.18-38.13s-46.77-21.41-60.74-42.1c1.06-.68,2.08-1.42,3.11-2.17.34-.25.68-.48,1-.74,6.07-4.5,11.94-9.74,15.84-16l.35.2a41.3,41.3,0,0,0,11.17,16.24c7.72,6.84,17.64,10.49,27.13,14.48,21,8.86,41.44,20.38,56.55,37.48,8.23,9.32,14.67,20,21.94,30.12C579,744.51,587,753.86,597.36,760Z"/><path class="cls-17" d="M459.16,627.29l-.46.2a32.11,32.11,0,0,1-3.88,8.75c-3.9,6.3-9.77,11.54-15.84,16l-.17-.22a137.34,137.34,0,0,1-42.53-48.91c-12.08-23.34-17.55-50.33-33.94-70.85A164.16,164.16,0,0,0,349,518.1c-2.16-2.14-4.36-4.27-6.52-6.38,7.86-2.8,15.61-6.1,23.39-9.12,16.31-6.33,34.09-11.52,51.13-7.84,6.36,11.91,5.36,26.33,6.82,39.82C427.29,567.64,445.79,596.85,459.16,627.29Z"/><path class="cls-18" d="M434.87,655.19a153.91,153.91,0,0,1-24.73,13.94c-2.51,1.14-5,2.19-7.59,3.19l-1.62-2.2c-10.72-18.55-26.08-33.88-40.59-49.7l-.76-.86Q342.09,600.42,326,580c-9.77-12.4-19.35-25.6-23-41a106.1,106.1,0,0,1,11.55-20.92c9.6-.63,18.83-3.16,28-6.41,2.16,2.11,4.36,4.24,6.52,6.38a164.16,164.16,0,0,1,13.34,14.2c16.39,20.52,21.86,47.51,33.94,70.85a137.34,137.34,0,0,0,42.53,48.91l.17.22c-.32.26-.66.49-1,.74C437,653.77,435.93,654.51,434.87,655.19Z"/><path class="cls-19" d="M420.74,372.92c1.08,5.16-3.25,9.69-7.24,13.14a23,23,0,0,0-4.48,4.73,5.24,5.24,0,0,0,.09-1.68c-.26-3.19-3.16-5.42-5.76-7.3s-5.41-4.33-5.36-7.52h-.48c.09-5,.2-10,.31-15,.12-5.7.2-11.55-.2-17.3h.09c1.79,5.72,6,10.34,10.09,14.79l8.66,9.35C418.29,368.13,420.2,370.27,420.74,372.92Z"/><path class="cls-20" d="M342.48,511.72c-9.13,3.25-18.36,5.78-28,6.41-.15,0-.26,0-.4,0H314q-4.39-41.38-7-82.91l.43-3.33c1,.11,2.05.22,3.08.39l-.09.57c3.42,4.74,8.29,8.18,13.17,11.41a329.09,329.09,0,0,0,94.25,42.83l.26,0a25,25,0,0,1,.08,6.53l-.31,1.34c-.32-.09-.6-.14-.89-.2-17-3.68-34.82,1.51-51.13,7.84C358.09,505.62,350.34,508.92,342.48,511.72Z"/><path class="cls-21" d="M395.29,327.55A71.33,71.33,0,0,1,397.62,342c.4,5.75.32,11.6.2,17.3-.11,5-.22,10-.31,15q-.47,20.57-.91,41.1c0,1.31-.06,2.65-.09,4-.14,9.63.12,19.4,3.37,28.41a44.34,44.34,0,0,0,1.82,4.3c2.85,6.16,6.75,11.8,10.06,17.73,3,5.39,5.61,11.26,6.36,17.27l-.26,0a329.09,329.09,0,0,1-94.25-42.83c-4.88-3.23-9.75-6.67-13.17-11.41l.09-.57c15,2.09,30.15,5.33,45.2,5.42,6.47,0,13.22-.63,18.81-3.93,10-5.87,13.71-18.73,13.45-30.33s-3.62-23-3.88-34.57c-.17-7.41.92-14.79,1.26-22.23.51-11.29-.8-22.89-5.76-33.06a44,44,0,0,0-10.2-13.51l2.79-3.05c1.11,1,2.25,2.05,3.36,3.08,5.65,5.16,11.4,10.43,15.31,17A45.17,45.17,0,0,1,395.29,327.55Z"/><path class="cls-22" d="M388,403.47c.26,11.6-3.45,24.46-13.45,30.33-5.59,3.3-12.34,4-18.81,3.93-15.05-.09-30.21-3.33-45.2-5.42-1-.17-2.06-.28-3.08-.39-13.08-1.71-26-2.31-38.68,1.08-4,1.08-8.12,2.56-12.22,1.85-8-1.34-12.23-9.89-14.85-17.7l.45-.14c6.36,5.1,14.88,6.7,23,6.75s16.28-1.19,24.43-1.05c20.23.34,40.35,9.41,60.22,5.42,5.24-1.06,10.77-3.42,13.11-8.21,1.31-2.68,1.45-5.79,1.59-8.75q.57-14.67,1.17-29.3c.29-7.44.52-15.19-2.48-22-2.88-6.62-8.52-11.66-11.65-18.13-6.76-13.85-1-31.41-7.95-45.17l-.29-.6a42.91,42.91,0,0,1,10.8-3.37l.57-.37a34.9,34.9,0,0,1,14.71,7.87,44,44,0,0,1,10.2,13.51c5,10.17,6.27,21.77,5.76,33.06-.34,7.44-1.43,14.82-1.26,22.23C384.37,380.5,387.71,391.87,388,403.47Z"/><path class="cls-23" d="M317.59,307.88c.77-.88,1.54-1.74,2.31-2.59a134,134,0,0,1,13.51-13.45q2.47-2.05,5.13-3.88a48.16,48.16,0,0,1,15-7l.66-.42c.17.25.31.48.48.74l.38,0c5.75,5.24,11.45,10.46,17.18,15.7l-2.79,3.05a34.9,34.9,0,0,0-14.71-7.87l-.57.37a42.91,42.91,0,0,0-10.8,3.37c-7.38,3.36-14,8.52-19.92,14.13-4.31,4.08-8.41,8.53-11.06,13.83s-3.76,11.57-1.94,17.21a18.42,18.42,0,0,0,18.07,12.34l.77,0a66.63,66.63,0,0,0,14.34,41.13,34.07,34.07,0,0,0-20.24,5.24c-2.91,1.86-5.56,4.19-8.69,5.62a23,23,0,0,1-9.52,1.79A216,216,0,0,1,299.33,340a48.64,48.64,0,0,1,2.25-13c2.9-8,9.32-14.11,15.87-19.67C317.51,307.51,317.54,307.68,317.59,307.88Z"/><path class="cls-24" d="M333.18,654.39a62.73,62.73,0,0,1-8.26-1.71c-5-1.37-9.66-3.47-14.57-5h0a73.75,73.75,0,0,0-30.53-3.11c-1.59.17-3.19.37-4.79.68l-.14-.82c11.23-34.57,13.85-71.74,28.05-105.2a1.21,1.21,0,0,1,.05-.14c3.65,15.36,13.23,28.56,23,41Q342,600.4,359.58,619.56l-1.89,1.71c-1.91,7.59-5.44,14.63-8.94,21.61-2.11,4.19-4.25,8.38-6.36,12.6C339.31,655.19,336.23,654.88,333.18,654.39Z"/><path class="cls-9" d="M347.18,256.18l.37.26a4.52,4.52,0,0,1-.46,2.05,5.45,5.45,0,0,1-6.35,2.91c-3.2-1.12-4.48-5-4.65-8.35a27.13,27.13,0,0,1,.63-7.41,60.73,60.73,0,0,0,1.57-6.53,7.91,7.91,0,0,0-1.57-6.33,3.83,3.83,0,0,0-2.31-1.34c-2.14-.23-3.71,1.88-4.79,3.76-1.45,2.46-2.91,4.93-4.33,7.41-.8,1.37-1.88,2.88-3.45,2.91a3.13,3.13,0,0,1-2.74-2.05,7.15,7.15,0,0,1-.17-3.62c.46-3.28,1.66-6.44,2.23-9.72s.45-6.87-1.43-9.6a10.79,10.79,0,0,0-8.18-4.28,22.21,22.21,0,0,0-9.32,1.63c-6.3,2.28-12.25,5.87-18.92,6.69a9.59,9.59,0,0,1-6.33-1,7.41,7.41,0,0,1-1-.82,14.1,14.1,0,0,0-3.13-2.57c-2.62-1.22-5.87.17-8.52-1-2.4-1.06-3.42-3.88-4-6.45a24.75,24.75,0,0,1-.17-10.83,14.15,14.15,0,0,1,5.89-8.83c3.85-2.48,8.73-2.45,13.26-3.14A38.55,38.55,0,0,0,293,185.1c4.1-2.39,7.89-5.59,12.51-6.73a18.48,18.48,0,0,1,14.22,2.94,31.55,31.55,0,0,1,9.75,11.17c3.16-2.76,7.86-3,12-2.14,3.53.75,7.09,2.4,9,5.48,3.79,6.1-.54,14.22,1.17,21.2.77,3.19,2.79,5.93,3.93,9,2,5.27,1.31,11.25-.71,16.53A63.48,63.48,0,0,1,347.18,256.18Z"/><path class="cls-25" d="M333.18,654.39c-1.88,12.11-9.69,22.66-14.08,34.23-9.17,24.26-3.05,52.33-12.82,76.35-2.31,5.7-5.47,11-8.35,16.45-9.61,18.27-15.88,38.11-21,58.08l.12.35a41.15,41.15,0,0,1-19.67,1.31q10.86-26.08,21.69-52.16c6.7-16.07,13.45-32.4,15.45-49.7,2.65-22.8-3.05-46.66,4.07-68.46,2.68-8.24,7.1-15.82,11.74-23.15v-.05c4.91,1.57,9.61,3.67,14.57,5A62.73,62.73,0,0,0,333.18,654.39Z"/><path class="cls-8" d="M554.5,809.87c0,2.79-2.59,4.82-5,6.33a449.27,449.27,0,0,1-74.21,38.9c-4.16,1.71-10.12,2.77-12.2-1.22-1-2-.48-4.39.26-6.5l3.39.88a225.93,225.93,0,0,0,79.66-50.67l.82-.54,5.39,8.29A8.59,8.59,0,0,1,554.5,809.87Z"/><path class="cls-8" d="M834.15,830.73q-10.3,23.43-20.58,46.86c-1.39,3.13-2.82,6.38-5.15,8.92a28.55,28.55,0,0,1-5.42,4.36A117,117,0,0,1,769.94,906a11.28,11.28,0,0,1-5.47.51c-1.83-.46-3.48-2.11-3.25-4a5.77,5.77,0,0,1,1.17-2.54c.08-.11.14-.23.23-.34l.19.14a91.93,91.93,0,0,0,22-6.18,46.76,46.76,0,0,0,11.17-6.33c5.3-4.25,9-10.12,12.43-16a254.53,254.53,0,0,0,20.32-44.46,46.4,46.4,0,0,1,4.5,3.51Z"/><path class="cls-9" d="M788.92,841.25c.09-.28.14-.57.23-.85l1.28.34a60.85,60.85,0,0,0,13.06-9,27.4,27.4,0,0,0,7.23-11,7.81,7.81,0,0,0,.4-1.51h0l.32.08a48.48,48.48,0,0,1,17.21,7.5,254.53,254.53,0,0,1-20.32,44.46c-3.39,5.87-7.13,11.74-12.43,16a46.76,46.76,0,0,1-11.17,6.33,91.93,91.93,0,0,1-22,6.18l-.19-.14A195.74,195.74,0,0,0,788.92,841.25Z"/><path class="cls-9" d="M537.43,785.39c.4-.23.8-.49,1.2-.71l.85.45q3.9,5.94,7.78,11.92l-.82.54a225.93,225.93,0,0,1-79.66,50.67l-3.39-.88c2.65-7.36,7.72-13.54,12.85-19.47q15.27-17.65,32.15-33.86h.14a33.33,33.33,0,0,0,14.28-1.59,16.5,16.5,0,0,0,1.57-.57A76.7,76.7,0,0,0,537.43,785.39Z"/><path class="cls-26" d="M508.5,793.94a540.23,540.23,0,0,0-38.84-135.09l.08,0a98.36,98.36,0,0,0,24.34,1.48,505.49,505.49,0,0,1,29.13,128.28l1.17,3.31a16.5,16.5,0,0,1-1.57.57,33.33,33.33,0,0,1-14.28,1.59S508.53,794,508.5,793.94Z"/><path class="cls-27" d="M789.15,840.4c-.09.28-.14.57-.23.85q-28.77-42.36-60-83c-7.78-10.09-15.71-20.18-25-29-3.08-2.91-6.3-5.67-9.52-8.41l.8-.94c4.84-3.33,9.6-6.84,14.22-10.46,7.18,8,14.68,15.85,21.83,23.8a525.21,525.21,0,0,1,68.92,96.33l3.28,2.11a60.85,60.85,0,0,1-13.06,9Z"/><path class="cls-28" d="M551.82,349.93c-8.26,19.32-16.55,38.62-25.62,57.57-1.71,3.53-3.82,7.38-7.58,8.46a3.53,3.53,0,0,1-2.42-.08,4.4,4.4,0,0,1-1.46-1.51c-14-20.55-20.72-45.77-35.59-65.44a73.8,73.8,0,0,0-4.88-5.93c-8.43-9.35-19-16.53-30-22.57l-1.56-.37c1-3.25,2.79-6.16,5.78-7.64a12.22,12.22,0,0,1,7.27-.88c8.41,1.19,15.05,7.78,19.69,14.87,4.08,6.22,7.1,13.09,11.37,19.13.6.85,1.26,1.71,1.91,2.53,3.59,4.45,8,8.16,11.89,12.35,7.29,7.95,12.54,17.52,17.55,27.1q7.27-25.9,16.85-51.1C541,340.41,546.3,345.37,551.82,349.93Z"/><path class="cls-29" d="M703.93,390.4a13.57,13.57,0,0,1-.34,6.41c-2,8.47-6.47,16.13-11,23.54a558.9,558.9,0,0,1-37.14,53.3l-.68.06c-.63-6.33-3-12.57-5.13-18.87l.54-.2q9.8-15.22,19.64-30.41c5.93-9.18,11.91-18.44,16.44-28.39l1-3.1A362.71,362.71,0,0,1,657,371a41.58,41.58,0,0,0-2.53-12.54l-6.33-.17c4.67-2,9.18-4.53,14-6a33.46,33.46,0,0,1,4.05-.94l.54,3q15.74,14.16,31.41,28.28C700.6,384.81,703.16,387.21,703.93,390.4Z"/><path class="cls-30" d="M584.49,247a28.76,28.76,0,0,0,3.3,14.08l-.62.29a142.26,142.26,0,0,1-15.82,9.86c-3.76,2-7.61,3.88-11.55,5.53-2.56,1.08-5.5,2.11-8.06,1a8.76,8.76,0,0,1-3.62-3.42c-3.39-5.16-4.39-11.46-5.07-17.59-2.51-23.14-.77-47.71,11-67.8l.48.28c6.56,3.82,9.41,11.69,11.72,18.93,1.17,3.59,2.31,7.18,3.47,10.74,1.23,3.85,2.65,8,5.85,10.38.91-2.28,2.16-4.59,4.39-5.59,2.5-1.14,5.58-.11,7.43,1.91a11.74,11.74,0,0,1,2.63,7.61A18.94,18.94,0,0,1,584.49,247Z"/><path class="cls-31" d="M810.24,820.56l.48.17a27.4,27.4,0,0,1-7.23,11l-3.28-2.11a525.21,525.21,0,0,0-68.92-96.33c-7.15-7.95-14.65-15.79-21.83-23.8a290,290,0,0,0,22.09-19.07c6.47,6.13,13,12.2,18.84,18.93C778,741.27,787.38,785.05,810.24,820.56Z"/><path class="cls-32" d="M594.06,270.55a51.51,51.51,0,0,1-6.27-9.52,28.76,28.76,0,0,1-3.3-14.08,18.94,18.94,0,0,0,5.5-13.79,11.74,11.74,0,0,0-2.63-7.61c-1.85-2-4.93-3.05-7.43-1.91-2.23,1-3.48,3.31-4.39,5.59-3.2-2.43-4.62-6.53-5.85-10.38-1.16-3.56-2.3-7.15-3.47-10.74-2.31-7.24-5.16-15.11-11.72-18.93l-.48-.28a7.14,7.14,0,0,1,.4-.71l-.94-1.12a63,63,0,0,1,45.71-15.44c11.94.88,24,5.61,31.67,14.85,6.72,8.15,9.6,19.18,17.3,26.42,9.32,8.75,23.2,9.86,35.88,11.4s26.79,4.93,33.34,15.9c5.33,8.89,4,20.12,1.94,30.27s-4.7,20.8-1.54,30.66c3.51,10.95,13.85,20,12.74,31.47-.85,8.63-8.46,15.39-16.73,17.93A47.16,47.16,0,0,1,698,352.21c-3.34-.12-6.67-.43-10-.74-7.21-.69-14.65-1.4-21.74-.12a33.46,33.46,0,0,0-4.05.94c-4.87,1.46-9.38,4-14,6a35,35,0,0,1-8.64,2.68c-12,1.82-24-5.9-29.81-16.59s-6-23.57-3.53-35.46c1.45-6.89,3.76-14.13,1.48-20.8-1.65-4.87-5.47-8.61-9-12.34C597.05,274.12,595.52,272.38,594.06,270.55Z"/><path class="cls-33" d="M728.56,387.29a9.46,9.46,0,0,1,1.25,4.73,9.85,9.85,0,0,1-1.77,4.05q-9.1,14.54-18.24,29c-2.76,4.33-5.5,8.72-8.69,12.77a146.12,146.12,0,0,1-11.4,12.34c-10.57,10.66-21.2,21.35-31.78,32l-3.08-3.05a28.22,28.22,0,0,0-.08-5.44l.68-.06a558.9,558.9,0,0,0,37.14-53.3c4.53-7.41,9-15.07,11-23.54a13.57,13.57,0,0,0,.34-6.41c-.77-3.19-3.33-5.59-5.75-7.78q-15.69-14.16-31.41-28.28l-.54-3c7.09-1.28,14.53-.57,21.74.12,3.31.31,6.64.62,10,.74v.17A86.37,86.37,0,0,1,728.56,387.29Z"/><path class="cls-34" d="M715.33,674a214.69,214.69,0,0,0,16.22,16.41,290,290,0,0,1-22.09,19.07c-14.11-15.67-27.16-32.12-34.77-51.61-5.73-14.62-8.07-30.3-10.89-45.75-8-44-20.35-88.43-46.77-124.43a157.41,157.41,0,0,1,34.2-4.05l.26-.43c12.57,6.93,20.12,20.64,23.37,34.58,3.31,14.13,2.85,28.81,3.31,43.32C679.45,601.5,688.94,643.43,715.33,674Z"/><path class="cls-35" d="M576.68,554.42a116.32,116.32,0,0,1-8.13-41.5A108.62,108.62,0,0,1,569.78,495l.31.05c13.51,3.28,27.36-2.19,40.79-5.84a7.19,7.19,0,0,1,.8-.2c1.76-.48,3.56-.94,5.35-1.31,26.42,36,38.79,80.46,46.77,124.43,2.82,15.45,5.16,31.13,10.89,45.75,7.61,19.49,20.66,35.94,34.77,51.61-4.62,3.62-9.38,7.13-14.22,10.46l-.8.94c-3.56-3-7.12-6.07-10.52-9.26-32.09-30-48.53-72.76-74.81-107.93-4.47-6-9.21-11.72-13.71-17.62a162,162,0,0,1-9.8-13.9A112.16,112.16,0,0,1,576.68,554.42Z"/><path class="cls-36" d="M566.1,359.53a69.78,69.78,0,0,1-14.28-9.6c-5.52-4.56-10.85-9.52-16.81-13.51-.74-.52-1.51-1-2.31-1.48l.43-.69a108.84,108.84,0,0,1,37.68-50.59,105.85,105.85,0,0,1,23.25-13.11c1.46,1.83,3,3.57,4.56,5.22,3.54,3.73,7.36,7.47,9,12.34,2.28,6.67,0,13.91-1.48,20.8-2.48,11.89-2.23,24.77,3.53,35.46s17.84,18.41,29.81,16.59a35,35,0,0,0,8.64-2.68l6.33.17A41.58,41.58,0,0,1,657,371c.54,9.83-1.85,20-4.59,29.61-3.93,13.8-8.55,28-6.12,42.15a79.65,79.65,0,0,0,3.36,12.09c2.14,6.3,4.5,12.54,5.13,18.87a28.22,28.22,0,0,1,.08,5.44,20.22,20.22,0,0,1-.28,2.31L651,483l.45.25-.26.43A157.41,157.41,0,0,0,617,487.7c-1.79.37-3.59.83-5.35,1.31l-.09-.37c1.11-10.12-2-20.24-5.81-29.67s-8.44-18.64-10.66-28.59A63.79,63.79,0,0,1,594,409.89c1.17-11.48,5.33-22.46,6.64-33.94s-.86-24.37-9.84-31.64l-.37.09-15.3,11.46a31.87,31.87,0,0,1-8,4.87l-1.34-.37c0-.09,0-.14.06-.23Z"/><path class="cls-37" d="M569.84,494.57l-.94-.12c-2.83-4.36-3.31-9.77-3.65-15-1.71-25.34-2.68-51.81-13.68-74.44a436.71,436.71,0,0,0,14.19-44.69l1.34.37a31.87,31.87,0,0,0,8-4.87l15.3-11.46.37-.09c9,7.27,11.18,20.18,9.84,31.64s-5.47,22.46-6.64,33.94a63.79,63.79,0,0,0,1.14,20.49c2.22,9.95,6.84,19.16,10.66,28.59s6.92,19.55,5.81,29.67l.09.37a7.19,7.19,0,0,0-.8.2c-13.43,3.65-27.28,9.12-40.79,5.84l-.31-.05A2,2,0,0,1,569.84,494.57Z"/><path class="cls-38" d="M506.14,630.94a66.89,66.89,0,0,1,14.42,22.15l-2,.83c-3.28,2.76-7.59,3.93-11.78,4.75a105.93,105.93,0,0,1-12.68,1.63c-.88-2.42-1.79-4.79-2.71-7.18-4.13-10.69-8.63-22.72-4-33.18,2.91-6.47,8.84-11,14.68-15,24.71-17.1,51.9-30.81,74.59-50.5a112.16,112.16,0,0,0,8.92,17.76,162,162,0,0,0,9.8,13.9l-2,1.51Q549.74,609.26,506.14,630.94Z"/><path class="cls-39" d="M587.79,261a51.51,51.51,0,0,0,6.27,9.52,105.85,105.85,0,0,0-23.25,13.11c.2-2.82,1.34-9,.94-11.77l-.4-.71a142.26,142.26,0,0,0,15.82-9.86Zm-.74,1.29c.09,2.62.17-2.65,0,0Z"/><path class="cls-40" d="M568.55,512.92a116.32,116.32,0,0,0,8.13,41.5c-22.69,19.69-49.88,33.4-74.59,50.5-5.84,4.05-11.77,8.55-14.68,15-4.67,10.46-.17,22.49,4,33.18.92,2.39,1.83,4.76,2.71,7.18a98.36,98.36,0,0,1-24.34-1.48l-.08,0c-.46-1.09-.94-2.2-1.43-3.28-6.21-14-13.14-29.19-9.29-44,4.1-15.67,18.92-25.68,32.26-34.88A519.38,519.38,0,0,0,567,513Z"/><path class="cls-41" d="M551.57,405.05c-2,5.21-4.05,10.4-6.22,15.53-1.85,4.39-3.84,8.81-7.18,12.17s-8.35,5.47-12.88,4.1a18.06,18.06,0,0,1-6.53-4.19c-18-16.1-29.12-38.27-41.72-58.91-2.62-4.3-5.42-8.63-9.24-12-6.55-5.73-15.81-8.15-21.26-15-4.53-5.67-5.53-13.48-5-20.72a29.45,29.45,0,0,1,1.12-6l1.56.37c11,6,21.58,13.22,30,22.57a73.8,73.8,0,0,1,4.88,5.93c14.87,19.67,21.63,44.89,35.59,65.44a4.4,4.4,0,0,0,1.46,1.51,3.53,3.53,0,0,0,2.42.08c3.76-1.08,5.87-4.93,7.58-8.46,9.07-18.95,17.36-38.25,25.62-57.57a69.78,69.78,0,0,0,14.28,9.6l-.28.6c0,.09,0,.14-.06.23A436.71,436.71,0,0,1,551.57,405.05Z"/><path class="cls-42" d="M530.33,711q2.45,37.32,7.1,74.42a76.7,76.7,0,0,1-13,6.5l-1.17-3.31A505.49,505.49,0,0,0,494.08,660.3a105.93,105.93,0,0,0,12.68-1.63c4.19-.82,8.5-2,11.78-4.75l2-.83a92.25,92.25,0,0,1,4.64,14.25C528.68,681.59,529.39,696.35,530.33,711Z"/></svg>